#!OML:ASF C:\ViconDB\ViconDB\414\Spring2016\041811\Spring2016.ASF
:FULLY-SPECIFIED
:DEGREES
330
root 11.8175 17.989 -8.9799 -179.025 -0.500303 -184.138
lowerback -0.383515 0.05139 -4.02011
upperback 0.739518 0.0726594 -1.05285
thorax 0.96937 -0.00669906 1.17331
lowerneck -10.2369 -1.23582 -11.9745
upperneck 26.7478 -5.30897 13.8947
head 10.8782 -2.94869 6.39356
rclavicle 1.25483e-015 -7.60351e-015
rhumerus -86.8248 32.4356 -121.109
rradius 85.0359
rwrist 28.6451
rhand -49.5557 -3.55266
rfingers 7.12502
rthumb -22.1626 -32.3023
lclavicle 1.25483e-015 -7.60351e-015
lhumerus -86.618 -46.9144 118.086
lradius 82.118
lwrist -29.9451
lhand -41.74 -2.11712
lfingers 7.12502
lthumb -14.6447 27.3458
rfemur 321.797 -200.545 4.69788
rtibia 61.7657
rfoot 51.0057 -78.4534
rtoes -3.81667e-014
lfemur -16.2243 -6.11231 -28.8286
ltibia 32.1811
lfoot -15.9774 -10.3872
ltoes 2.16675e-014
331
root 11.786 18.0005 -9.15168 -179.017 -0.282732 -184.273
lowerback -0.372529 -0.0195241 -3.81499
upperback 0.708247 -0.0203658 -0.944319
thorax 0.935677 -0.0486882 1.16887
lowerneck -10.3561 -1.12421 -11.9589
upperneck 26.8454 -4.97621 13.4224
head 10.8746 -2.82839 6.25459
rclavicle 1.71141e-015 7.05686e-015
rhumerus -86.6017 32.1652 -120.703
rradius 85.1889
rwrist 28.4682
rhand -49.4052 -3.06624
rfingers 7.12502
rthumb -22.0181 -31.8329
lclavicle 1.71141e-015 7.05686e-015
lhumerus -86.9156 -46.8591 118.405
lradius 82.0508
lwrist -29.4943
lhand -41.7086 -1.91255
lfingers 7.12502
lthumb -14.6144 27.5525
rfemur 324.57 -200.155 5.13644
rtibia 60.8989
rfoot 42.4929 -78.3009
rtoes -6.04305e-014
lfemur -15.1615 -6.13866 -29.1884
ltibia 31.3995
lfoot -16.2808 -10.0544
ltoes -1.61016e-014
332
root 11.7542 17.9986 -9.32595 -179.084 -0.0401315 -184.767
lowerback -0.356579 -0.0571026 -3.89859
upperback 0.733048 -0.0721191 -0.989765
thorax 0.954743 -0.076736 1.16836
lowerneck -10.5837 -3.61597 -11.3636
upperneck 27.6279 -3.94568 11.9303
head 11.1314 -0.834838 6.04582
rclavicle 1.09953e-015 1.11319e-014
rhumerus -86.3538 31.9826 -120.279
rradius 85.3014
rwrist 28.986
rhand -49.1706 -2.83349
rfingers 7.12502
rthumb -21.7928 -31.6265
lclavicle 1.09953e-015 1.11319e-014
lhumerus -87.3812 -46.8918 118.733
lradius 82.2402
lwrist -28.7145
lhand -41.4576 -1.9514
lfingers 7.12502
lthumb -14.3726 27.531
rfemur 327.421 -199.842 5.21763
rtibia 59.7475
rfoot 35.6457 -77.4609
rtoes -6.36111e-015
lfemur -14.0447 -5.94706 -29.9536
ltibia 30.6374
lfoot -16.5592 -9.94952
ltoes -4.47266e-014
333
root 11.7177 18.0024 -9.50036 -179.189 0.265157 -185.112
lowerback -0.476016 -0.122614 -3.78974
upperback 0.860295 -0.0745729 -1.02502
thorax 1.15436 -0.0493333 1.07153
lowerneck -10.6902 -3.47208 -11.3216
upperneck 27.5302 -3.69681 11.6503
head 11.0736 -0.763382 5.95161
rclavicle 3.85145e-015 3.83654e-014
rhumerus -85.9206 31.8183 -119.888
rradius 85.3749
rwrist 29.5498
rhand -49.0821 -2.84657
rfingers 7.12502
rthumb -21.7078 -31.6495
lclavicle 3.85145e-015 3.83654e-014
lhumerus -87.3812 -46.9133 118.645
lradius 82.1321
lwrist -28.9601
lhand -41.6041 -1.57371
lfingers 7.12502
lthumb -14.5137 27.8986
rfemur 330.481 -199.564 5.48621
rtibia 58.3268
rfoot 26.9083 -76.7248
rtoes 3.18055e-014
lfemur -12.8958 -5.72074 -30.572
ltibia 29.907
lfoot -16.897 -9.79813
ltoes -9.95911e-014
334
root 11.6852 17.9974 -9.67365 -179.228 0.571751 -185.445
lowerback -0.589129 -0.130588 -3.81909
upperback 0.916245 -0.0804187 -0.949355
thorax 1.27575 -0.0564287 1.16516
lowerneck -10.7887 -3.38932 -11.5213
upperneck 27.5056 -3.49431 11.4365
head 11.0572 -0.727439 5.92629
rclavicle 2.33572e-015 3.22031e-014
rhumerus -85.8487 31.7743 -119.572
rradius 85.6164
rwrist 29.668
rhand -49.1302 -3.19604
rfingers 7.12502
rthumb -21.754 -31.9936
lclavicle 2.33572e-015 3.22031e-014
lhumerus -87.6245 -47.0483 118.878
lradius 82.2511
lwrist -28.2905
lhand -41.6133 -1.51328
lfingers 7.12502
lthumb -14.5226 27.9584
rfemur 333.745 -199.363 5.87177
rtibia 56.6679
rfoot 20.1803 -75.4353
rtoes -4.77083e-014
lfemur -11.8781 -5.50348 -31.1523
ltibia 29.2462
lfoot -17.0718 -9.73577
ltoes -5.60573e-014
335
root 11.6535 17.986 -9.84713 -179.163 0.870041 -185.837
lowerback -0.619552 -0.135377 -3.70158
upperback 0.810693 -0.0881923 -1.04318
thorax 1.18428 -0.0557809 1.00325
lowerneck -10.775 -3.29389 -11.4445
upperneck 27.5519 -3.29206 11.1033
head 11.0377 -0.668484 5.81023
rclavicle -5.96354e-016 -7.95139e-016
rhumerus -85.7702 31.4813 -119.427
rradius 85.7844
rwrist 29.8541
rhand -48.8178 -2.71341
rfingers 7.12502
rthumb -21.4541 -31.5454
lclavicle -5.96354e-016 -7.95139e-016
lhumerus -88.0471 -47.0382 119.137
lradius 82.3153
lwrist -27.7985
lhand -41.5626 -1.60284
lfingers 7.12502
lthumb -14.4738 27.8724
rfemur 337.256 -199.309 6.33258
rtibia 54.8041
rfoot 14.2656 -74.0796
rtoes 5.08889e-014
lfemur -11.0287 -5.44518 -31.7839
ltibia 28.6634
lfoot -17.5879 -9.29703
ltoes -1.27222e-014
